Coordinates
version=1
nRows=29
nColumns=22
inDegrees=yes

Units are S.I. units (second, meters, Newtons, ...)
If the header above contains a line with 'inDegrees', this indicates whether rotational values are in degrees (yes) or radians (no).

endheader
time	pelvis_tilt	pelvis_list	pelvis_rotation	pelvis_tx	pelvis_ty	pelvis_tz	hip_flexion_r	hip_adduction_r	hip_rotation_r	knee_angle_r	ankle_angle_r	subtalar_angle_r	hip_flexion_l	hip_adduction_l	hip_rotation_l	knee_angle_l	ankle_angle_l	subtalar_angle_l	lumbar_extension	lumbar_bending	lumbar_rotation
      3.65000000	      1.85530632	     -0.99633535	    -23.50114014	      0.33312780	      0.89519104	     -0.32329684	     23.16702173	      3.22883732	    -26.92907241	     -8.16460218	      2.76599793	     -4.55118384	    -14.50233112	     -6.88059857	    -31.22813011	    -17.38493453	     14.25371369	      8.28175294	    -11.44916956	     -1.69497490	    -11.31209434
      3.66000000	      1.96404678	     -0.92839070	    -23.75341233	      0.34089853	      0.89383154	     -0.31872919	     23.06840353	      3.04608814	    -27.75776783	     -7.97529587	      3.09207415	     -4.61578981	    -15.15559576	     -6.82114733	    -31.27377128	    -17.58731413	     13.94530455	      8.48211058	    -11.39606648	     -1.67922038	    -11.43302047
      3.67000000	      2.11589032	     -0.90277000	    -24.00318860	      0.34884560	      0.89262566	     -0.31397004	     22.99284008	      2.79296888	    -28.58950873	     -8.39792207	      3.39304210	     -4.91560997	    -15.85161564	     -6.80048936	    -31.23129982	    -17.84667556	     13.55615614	      8.70759813	    -11.39194608	     -1.62177412	    -11.55280369
      3.68000000	      2.27854876	     -0.91499896	    -24.24592978	      0.35703710	      0.89153830	     -0.30897404	     22.93753557	      2.49152789	    -29.39033350	     -9.32827085	      3.68025355	     -5.45353835	    -16.56416932	     -6.82779221	    -31.09685848	    -18.15532923	     13.06943557	      8.91749778	    -11.38731189	     -1.51221243	    -11.70312861
      3.69000000	      2.43687489	     -0.98047746	    -24.49122708	      0.36552200	      0.89058258	     -0.30367158	     22.85965188	      2.19455348	    -30.16933023	    -10.60166011	      3.87892737	     -6.22910062	    -17.28664053	     -6.92654006	    -30.89910847	    -18.52769258	     12.47298429	      9.12638822	    -11.36352469	     -1.33510048	    -11.85993033
      3.70000000	      2.58732422	     -1.10618944	    -24.72134689	      0.37427358	      0.88978930	     -0.29804960	     22.72145961	      1.93841168	    -30.91539756	    -12.05039235	      3.97072761	     -7.15639794	    -18.00921702	     -7.11224128	    -30.59388067	    -18.97022718	     11.76684256	      9.33657112	    -11.32826559	     -1.08600544	    -12.04374504
      3.71000000	      2.69980877	     -1.30620973	    -24.96066651	      0.38325682	      0.88916345	     -0.29201297	     22.51498155	      1.79495022	    -31.62434635	    -13.51724085	      3.93002435	     -8.20969665	    -18.70177900	     -7.41712101	    -30.22908802	    -19.51338454	     10.91716435	      9.57376895	    -11.25237337	     -0.75224287	    -12.21856927
      3.72000000	      2.76679090	     -1.58013634	    -25.21884656	      0.39235457	      0.88873281	     -0.28553304	     22.24266033	      1.80027502	    -32.27566412	    -14.89293776	      3.73622817	     -9.37819304	    -19.33982679	     -7.84838748	    -29.80019687	    -20.17751231	      9.92004226	      9.86651320	    -11.14253240	     -0.34556873	    -12.37606999
      3.73000000	      2.75999305	     -1.91304281	    -25.53568774	      0.40143897	      0.88848881	     -0.27858715	     21.94189310	      1.99244394	    -32.76927377	    -16.10005862	      3.39754385	    -10.63175077	    -19.87313511	     -8.39740599	    -29.32727358	    -20.98966190	      8.74577762	     10.22485445	    -10.97585058	      0.12595084	    -12.48260650
      3.74000000	      2.68681901	     -2.27469972	    -25.93308314	      0.41035329	      0.88843299	     -0.27122051	     21.65102962	      2.35095847	    -33.02829700	    -17.15203110	      2.93206750	    -11.89856142	    -20.26782476	     -9.02903056	    -28.81316051	    -21.98038911	      7.40704302	     10.63745219	    -10.76826137	      0.62126176	    -12.54050209
      3.75000000	      2.53853401	     -2.61778597	    -26.45502861	      0.41898595	      0.88852870	     -0.26342509	     21.41857151	      2.85342181	    -32.94126042	    -18.07231532	      2.42715032	    -13.09757079	    -20.48336854	     -9.68378995	    -28.23885028	    -23.15175177	      5.85030473	     11.08394958	    -10.49938338	      1.08682106	    -12.50577348
      3.76000000	      2.33949142	     -2.90299022	    -27.10195493	      0.42728702	      0.88876755	     -0.25529782	     21.25751994	      3.43115850	    -32.52401315	    -18.92137670	      1.98912185	    -14.16790439	    -20.50681102	    -10.30287189	    -27.55189401	    -24.49862647	      4.06557273	     11.55153584	    -10.18464239	      1.47737504	    -12.37996655
      3.77000000	      2.11444990	     -3.10609948	    -27.87155797	      0.43520448	      0.88913976	     -0.24693135	     21.16092215	      4.03044637	    -31.80740080	    -19.73485413	      1.62284154	    -15.01547675	    -20.32307685	    -10.85452165	    -26.74184353	    -26.04168374	      2.05972049	     11.99794574	     -9.84559312	      1.76440858	    -12.19642436
      3.78000000	      1.89093368	     -3.21678937	    -28.75457893	      0.44274807	      0.88963262	     -0.23842872	     21.10287593	      4.60576075	    -30.86813549	    -20.53339673	      1.37818051	    -15.65817679	    -19.94225825	    -11.30556245	    -25.78263478	    -27.76638865	     -0.14932451	     12.41625976	     -9.50340904	      1.93595207	    -11.96043588
      3.79000000	      1.68175079	     -3.23556313	    -29.72342016	      0.44993869	      0.89022235	     -0.22987657	     21.05794446	      5.12814734	    -29.82437273	    -21.31059231	      1.32371008	    -16.16666978	    -19.36497691	    -11.63963490	    -24.60792661	    -29.65428526	     -2.54636467	     12.82628232	     -9.16664751	      1.99290737	    -11.67105853
      3.80000000	      1.51509527	     -3.16408678	    -30.77667511	      0.45673831	      0.89089436	     -0.22137234	     20.99436811	      5.58226852	    -28.67719033	    -22.04700252	      1.37893737	    -16.50932478	    -18.60161982	    -11.83836605	    -23.26458183	    -31.71943418	     -5.05983640	     13.17509082	     -8.86941197	      1.93302392	    -11.35483662
      3.81000000	      1.38992792	     -3.01615139	    -31.89070110	      0.46317054	      0.89161257	     -0.21298058	     20.89945462	      5.96856517	    -27.49196612	    -22.72807015	      1.56390507	    -16.73631867	    -17.65363681	    -11.90152978	    -21.74321963	    -33.94694375	     -7.62871070	     13.47701926	     -8.60898309	      1.77182880	    -10.99482812
      3.82000000	      1.30503559	     -2.80860689	    -33.04703556	      0.46925820	      0.89234251	     -0.20476791	     20.76477907	      6.29427228	    -26.29328594	    -23.34160027	      1.86903792	    -16.87513793	    -16.52602535	    -11.84135858	    -20.09631708	    -36.33804722	    -10.17581525	     13.73715494	     -8.38785574	      1.53474942	    -10.60166941
      3.83000000	      1.27016037	     -2.56488375	    -34.22662269	      0.47502817	      0.89308544	     -0.19676056	     20.56166996	      6.56758901	    -25.11359220	    -23.86392105	      2.25296067	    -16.93927071	    -15.24611469	    -11.67732768	    -18.40105454	    -38.88001640	    -12.64813308	     13.91564566	     -8.22167554	      1.23648767	    -10.17745346
      3.84000000	      1.27210106	     -2.31537353	    -35.40779136	      0.48054097	      0.89381433	     -0.18900160	     20.30094033	      6.80472843	    -23.96769305	    -24.32521752	      2.72175498	    -16.95183876	    -13.83565361	    -11.44584352	    -16.71817027	    -41.54394690	    -15.00590309	     14.00681939	     -8.10756856	      0.92637919	     -9.77237350
      3.85000000	      1.31737001	     -2.07192436	    -36.58297052	      0.48581847	      0.89455953	     -0.18146676	     19.95568923	      7.01081858	    -22.88367833	    -24.68919052	      3.22518723	    -16.92850955	    -12.33063955	    -11.15613189	    -15.10347921	    -44.27612319	    -17.23792516	     13.96019045	     -8.05132840	      0.60020318	     -9.36199233
      3.86000000	      1.40051999	     -1.84770896	    -37.74558777	      0.49091497	      0.89534195	     -0.17413936	     19.51743646	      7.19274762	    -21.87531756	    -24.94651795	      3.73016123	    -16.88763010	    -10.76509508	    -10.82022243	    -13.58257507	    -47.00808736	    -19.31479587	     13.76030787	     -8.04566711	      0.27342886	     -8.93932324
      3.87000000	      1.50315263	     -1.63910313	    -38.88923593	      0.49584097	      0.89614293	     -0.16702241	     19.01366184	      7.35439907	    -20.93081625	    -25.10870649	      4.23902293	    -16.83895433	     -9.13993436	    -10.45673941	    -12.18246890	    -49.69538363	    -21.17369891	     13.42203419	     -8.06917467	     -0.04404915	     -8.53853937
      3.88000000	      1.61566222	     -1.43932947	    -40.02101307	      0.50062643	      0.89697784	     -0.16008244	     18.45124872	      7.49715868	    -20.04340567	    -25.16375455	      4.71622950	    -16.78534449	     -7.47550645	    -10.06441513	    -10.90724351	    -52.27144180	    -22.73623595	     12.94881780	     -8.10058944	     -0.35422248	     -8.13576141
      3.89000000	      1.72495208	     -1.25086214	    -41.14673717	      0.50530040	      0.89785473	     -0.15326269	     17.83500476	      7.63397113	    -19.20155067	    -25.10606626	      5.14413434	    -16.72360885	     -5.79305016	     -9.66760476	     -9.77308061	    -54.68748470	    -23.91749769	     12.39452558	     -8.12090221	     -0.64779494	     -7.71953704
      3.90000000	      1.80889367	     -1.06644204	    -42.27211650	      0.50982647	      0.89871589	     -0.14654410	     17.21122476	      7.77821748	    -18.36236021	    -24.97741679	      5.53988261	    -16.64497275	     -4.07914844	     -9.30215126	     -8.79916264	    -56.93728647	    -24.60600914	     11.79471549	     -8.11261827	     -0.91487017	     -7.33194458
      3.91000000	      1.87311388	     -0.88972264	    -43.40825796	      0.51425671	      0.89960330	     -0.13984222	     16.55662999	      7.93232838	    -17.52496577	    -24.75591655	      5.87174858	    -16.54493142	     -2.37839141	     -8.97151038	     -7.97175853	    -58.96839999	    -24.77561317	     11.27161179	     -8.06628868	     -1.15988224	     -6.91929832
      3.92000000	      1.91362593	     -0.72170623	    -44.56426256	      0.51854790	      0.90049013	     -0.13311639	     15.89613565	      8.10303877	    -16.66180790	    -24.48894291	      6.16456291	    -16.41658941	     -0.69764373	     -8.69625449	     -7.28402115	    -60.77309496	    -24.45175913	     10.87786762	     -7.98538500	     -1.38269592	     -6.49846856
      3.93000000	      1.93581900	     -0.56510028	    -45.75638249	      0.52268604	      0.90137685	     -0.12631174	     15.22356267	      8.29623024	    -15.73868459	    -24.18118588	      6.41387661	    -16.26200692	      0.93827984	     -8.48673749	     -6.73807819	    -62.33763904	    -23.66035660	     10.65684467	     -7.87239897	     -1.58842207	     -6.05074449
